# xmcd
#
# Track frame offsets:
#	150
#	14529
#	34436
#	47813
#	59909
#	78218
#	101598
#	120639
#	143837
#	164586
#	188708
#
# Disc length: 2825 seconds
# Revision: 0
# Processed by: cddbd v1.5.2PL0 Copyright (c) Steve Scherf et al.
# Submitted via: dBpowerAMP V12.0
#
DISCID=9c0b070b
DTITLE=The Youngers - Picture of You
DYEAR=2016
DGENRE=Country
TTITLE0=Picture of You
TTITLE1=Running in the Night
TTITLE2=No Money
TTITLE3=Morning Sun
TTITLE4=Devil's Fingers
TTITLE5=Let it Roll
TTITLE6=Down the Road
TTITLE7=Old Times
TTITLE8=Stay Down
TTITLE9=Get to You
TTITLE10=Fly Away
EXTD=
EXTT0=
EXTT1=
EXTT2=
EXTT3=
EXTT4=
EXTT5=
EXTT6=
EXTT7=
EXTT8=
EXTT9=
EXTT10=
PLAYORDER=
